<svg width="1601" height="275" viewBox="0 0 1601 275" fill="none" xmlns="http://www.w3.org/2000/svg">
<g clip-path="url(#clip0_14_2271)">
<path d="M74.1169 17.7855L-0.00708008 255.305H48.1612L63.9465 201.352H155.509L171.295 255.305H219.473L145.339 17.7855H74.1169ZM78.6723 159.776L109.728 62.5249L140.794 159.776H78.6723Z" fill="#191A21"/>
<path d="M74.1169 17.7855L-0.00708008 255.305H48.1612L63.9465 201.352H155.509L171.295 255.305H219.473L145.339 17.7855H74.1169ZM78.6723 159.776L109.728 62.5249L140.794 159.776H78.6723Z" fill="url(#paint0_linear_14_2271)"/>
<path d="M342.79 17.7855H296.696V255.287H342.79V17.7855Z" fill="#191A21"/>
<path d="M342.79 17.7855H296.696V255.287H342.79V17.7855Z" fill="url(#paint1_linear_14_2271)"/>
<path d="M528.548 17.7855C528.548 17.7855 420.021 21.1722 420.021 136.546C420.021 251.92 528.548 255.305 528.548 255.305H613.803V122.391H567.704V209.205H530.548C530.548 209.205 466.426 205.376 466.426 136.546C466.426 67.7158 530.548 63.8855 530.548 63.8855H613.803V17.7855H528.548Z" fill="#191A21"/>
<path d="M528.548 17.7855C528.548 17.7855 420.021 21.1722 420.021 136.546C420.021 251.92 528.548 255.305 528.548 255.305H613.803V122.391H567.704V209.205H530.548C530.548 209.205 466.426 205.376 466.426 136.546C466.426 67.7158 530.548 63.8855 530.548 63.8855H613.803V17.7855H528.548Z" fill="url(#paint2_linear_14_2271)"/>
<path d="M1005.67 17.7855V255.305H1051.76L1051.4 85.6996L1143.17 255.305H1204.18V17.7855H1158.08V186.253L1066.07 17.7855H1005.67Z" fill="#191A21"/>
<path d="M1005.67 17.7855V255.305H1051.76L1051.4 85.6996L1143.17 255.305H1204.18V17.7855H1158.08V186.253L1066.07 17.7855H1005.67Z" fill="url(#paint3_linear_14_2271)"/>
<path d="M1327.51 17.7855H1281.41V255.287H1327.51V17.7855Z" fill="#191A21"/>
<path d="M1327.51 17.7855H1281.41V255.287H1327.51V17.7855Z" fill="url(#paint4_linear_14_2271)"/>
<path d="M1599.99 255.305L1530.15 136.546L1599.99 17.7855H1544.44L1502.36 89.3076L1460.29 17.7855H1404.73L1474.58 136.546L1404.73 255.305H1460.29L1502.36 183.783L1544.44 255.305H1599.99Z" fill="#191A21"/>
<path d="M1599.99 255.305L1530.15 136.546L1599.99 17.7855H1544.44L1502.36 89.3076L1460.29 17.7855H1404.73L1474.58 136.546L1404.73 255.305H1460.29L1502.36 183.783L1544.44 255.305H1599.99Z" fill="url(#paint5_linear_14_2271)"/>
<path fill-rule="evenodd" clip-rule="evenodd" d="M928.43 68.7368L809.728 0.213013L691.037 68.7368V205.776L809.728 274.3L928.43 205.776V68.7368ZM875.865 90.6508L809.728 52.4154L744.055 90.3821L810.139 128.582L875.865 90.6508ZM883.199 103.829L817.676 141.643V217.502L883.199 179.622V103.829ZM802.596 217.975V141.64L736.257 103.292V179.622L802.596 217.975Z" fill="#191A21"/>
<path fill-rule="evenodd" clip-rule="evenodd" d="M928.43 68.7368L809.728 0.213013L691.037 68.7368V205.776L809.728 274.3L928.43 205.776V68.7368ZM875.865 90.6508L809.728 52.4154L744.055 90.3821L810.139 128.582L875.865 90.6508ZM883.199 103.829L817.676 141.643V217.502L883.199 179.622V103.829ZM802.596 217.975V141.64L736.257 103.292V179.622L802.596 217.975Z" fill="url(#paint6_linear_14_2271)"/>
</g>
<defs>
<linearGradient id="paint0_linear_14_2271" x1="109.733" y1="17.7855" x2="109.733" y2="255.305" gradientUnits="userSpaceOnUse">
<stop stop-color="white" stop-opacity="0.05"/>
<stop offset="1" stop-color="white" stop-opacity="0.05"/>
</linearGradient>
<linearGradient id="paint1_linear_14_2271" x1="319.743" y1="17.7855" x2="319.743" y2="255.287" gradientUnits="userSpaceOnUse">
<stop stop-color="white" stop-opacity="0.05"/>
<stop offset="1" stop-color="white" stop-opacity="0.05"/>
</linearGradient>
<linearGradient id="paint2_linear_14_2271" x1="516.912" y1="17.7855" x2="516.912" y2="255.305" gradientUnits="userSpaceOnUse">
<stop stop-color="white" stop-opacity="0.05"/>
<stop offset="1" stop-color="white" stop-opacity="0.05"/>
</linearGradient>
<linearGradient id="paint3_linear_14_2271" x1="1104.92" y1="17.7855" x2="1104.92" y2="255.305" gradientUnits="userSpaceOnUse">
<stop stop-color="white" stop-opacity="0.05"/>
<stop offset="1" stop-color="white" stop-opacity="0.05"/>
</linearGradient>
<linearGradient id="paint4_linear_14_2271" x1="1304.46" y1="17.7855" x2="1304.46" y2="255.287" gradientUnits="userSpaceOnUse">
<stop stop-color="white" stop-opacity="0.05"/>
<stop offset="1" stop-color="white" stop-opacity="0.05"/>
</linearGradient>
<linearGradient id="paint5_linear_14_2271" x1="1502.36" y1="17.7855" x2="1502.36" y2="255.305" gradientUnits="userSpaceOnUse">
<stop stop-color="white" stop-opacity="0.05"/>
<stop offset="1" stop-color="white" stop-opacity="0.05"/>
</linearGradient>
<linearGradient id="paint6_linear_14_2271" x1="809.733" y1="0.213013" x2="809.733" y2="274.3" gradientUnits="userSpaceOnUse">
<stop stop-color="white" stop-opacity="0.05"/>
<stop offset="1" stop-color="white" stop-opacity="0.05"/>
</linearGradient>
<clipPath id="clip0_14_2271">
<rect width="1600.25" height="275" fill="white"/>
</clipPath>
</defs>
</svg>